<svg width="28" height="28" viewBox="0 0 28 28" fill="none" xmlns="http://www.w3.org/2000/svg">
<path d="M14 0C6.372 0 0.17 6.1 0.00300002 13.687L0 14C0 15.3261 0.526784 16.5979 1.46447 17.5355C2.40215 18.4732 3.67392 19 5 19H7.5C8.2594 18.9999 8.99824 19.2467 9.60504 19.7033C10.2118 20.1599 10.6537 20.8015 10.8639 21.5312C11.0741 22.2609 11.0412 23.0392 10.7703 23.7486C10.4994 24.4581 10.0051 25.0601 9.362 25.464L9.185 25.569C9.0516 25.6423 8.94092 25.7509 8.86507 25.8828C8.78922 26.0148 8.75112 26.1651 8.75494 26.3173C8.75876 26.4694 8.80435 26.6176 8.88672 26.7456C8.9691 26.8736 9.08509 26.9765 9.222 27.043L9.999 27.42C11.267 27.797 12.609 28 14 28C21.732 28 28 21.732 28 14C28 6.268 21.732 0 14 0ZM19 17C19.394 17 19.7841 17.0776 20.1481 17.2284C20.512 17.3791 20.8427 17.6001 21.1213 17.8787C21.3999 18.1573 21.6209 18.488 21.7716 18.852C21.9224 19.2159 22 19.606 22 20C22 20.394 21.9224 20.7841 21.7716 21.1481C21.6209 21.512 21.3999 21.8427 21.1213 22.1213C20.8427 22.3999 20.512 22.6209 20.1481 22.7716C19.7841 22.9224 19.394 23 19 23C18.2044 23 17.4413 22.6839 16.8787 22.1213C16.3161 21.5587 16 20.7957 16 20C16 19.2044 16.3161 18.4413 16.8787 17.8787C17.4413 17.3161 18.2044 17 19 17ZM20 6C20.394 6 20.7841 6.0776 21.1481 6.22836C21.512 6.37913 21.8427 6.6001 22.1213 6.87868C22.3999 7.15726 22.6209 7.48797 22.7716 7.85195C22.9224 8.21593 23 8.60603 23 9C23 9.39397 22.9224 9.78407 22.7716 10.1481C22.6209 10.512 22.3999 10.8427 22.1213 11.1213C21.8427 11.3999 21.512 11.6209 21.1481 11.7716C20.7841 11.9224 20.394 12 20 12C19.2044 12 18.4413 11.6839 17.8787 11.1213C17.3161 10.5587 17 9.79565 17 9C17 8.20435 17.3161 7.44129 17.8787 6.87868C18.4413 6.31607 19.2044 6 20 6ZM10 4C10.7956 4 11.5587 4.31607 12.1213 4.87868C12.6839 5.44129 13 6.20435 13 7C13 7.79565 12.6839 8.55871 12.1213 9.12132C11.5587 9.68393 10.7956 10 10 10C9.20435 10 8.44129 9.68393 7.87868 9.12132C7.31607 8.55871 7 7.79565 7 7C7 6.20435 7.31607 5.44129 7.87868 4.87868C8.44129 4.31607 9.20435 4 10 4Z" fill="#4B4F52"/>
</svg>
