<svg width="24" height="24" viewBox="0 0 24 24" fill="none" xmlns="http://www.w3.org/2000/svg">
<g clip-path="url(#clip0_6_179)">
<path d="M21.2999 23.9162H8.53065C7.82601 23.9162 7.15022 23.6362 6.65196 23.138C6.1537 22.6397 5.87378 21.9639 5.87378 21.2593V8.53065C5.87378 7.06328 7.06328 5.87378 8.53065 5.87378H21.2999C22.7673 5.87378 23.9568 7.06328 23.9568 8.53065V21.2999C23.9162 22.7267 22.7267 23.9162 21.2999 23.9162ZM8.53065 8.25115C8.49378 8.25025 8.45711 8.25688 8.42288 8.27063C8.38865 8.28438 8.35759 8.30496 8.33158 8.33112C8.30557 8.35728 8.28517 8.38846 8.27163 8.42277C8.25808 8.45708 8.25166 8.49378 8.25278 8.53065V21.2999C8.25278 21.4575 8.3714 21.5762 8.52903 21.5762H21.2999C21.4575 21.5762 21.5762 21.4575 21.5762 21.2999V8.53065C21.577 8.49406 21.5705 8.45766 21.557 8.42366C21.5434 8.38965 21.5231 8.35874 21.4973 8.33278C21.4715 8.30682 21.4407 8.28635 21.4068 8.2726C21.3729 8.25885 21.3365 8.25211 21.2999 8.25278H8.53065V8.25115Z" fill="#4B4F52"/>
<path d="M3.89124 18.1262H2.74074C2.03609 18.1262 1.3603 17.8463 0.862043 17.3481C0.363782 16.8498 0.0838623 16.174 0.0838623 15.4694V2.74074C0.0838623 1.27336 1.27336 0.0838623 2.74074 0.0838623H15.51C16.9774 0.0838623 18.1669 1.27336 18.1669 2.74074V4.00824C18.1699 4.16537 18.1413 4.32151 18.0826 4.46731C18.024 4.61311 17.9365 4.74558 17.8254 4.85678C17.7144 4.96799 17.582 5.05565 17.4363 5.11451C17.2906 5.17337 17.1345 5.20223 16.9774 5.19936C16.8204 5.202 16.6646 5.17304 16.5191 5.11419C16.3736 5.05535 16.2414 4.96783 16.1304 4.85684C16.0194 4.74586 15.9319 4.61368 15.873 4.46817C15.8142 4.32266 15.7852 4.1668 15.7879 4.00986V2.74074C15.7888 2.704 15.7822 2.66747 15.7685 2.63335C15.7549 2.59924 15.7344 2.56825 15.7085 2.54227C15.6825 2.51628 15.6515 2.49585 15.6174 2.4822C15.5833 2.46855 15.5467 2.46197 15.51 2.46286H2.74074C2.70414 2.46198 2.66775 2.46851 2.63374 2.48206C2.59974 2.49561 2.56882 2.5159 2.54286 2.54171C2.5169 2.56751 2.49643 2.59831 2.48269 2.63223C2.46894 2.66616 2.46219 2.70251 2.46286 2.73911V15.51C2.46286 15.6676 2.58149 15.7862 2.73911 15.7862H3.88961C4.04669 15.7836 4.20268 15.8126 4.3483 15.8716C4.49392 15.9305 4.62618 16.0182 4.73719 16.1293C4.84819 16.2405 4.93568 16.3729 4.99442 16.5186C5.05317 16.6643 5.08197 16.8203 5.07911 16.9774C5.07911 17.6501 4.52499 18.1262 3.88961 18.1262H3.89124Z" fill="#4B4F52"/>
</g>
<defs>
<clipPath id="clip0_6_179">
<rect width="24" height="24" fill="white"/>
</clipPath>
</defs>
</svg>
