<svg width="26" height="26" viewBox="0 0 26 26" fill="none" xmlns="http://www.w3.org/2000/svg">
<g clip-path="url(#clip0_4_168)">
<path d="M9.72835 14.0836L5.40585 17.3336C4.32252 18.2869 4.18169 19.6303 4.32252 20.5836C4.47419 21.6561 5.31919 22.9886 6.50002 23.4869C8.20085 24.2128 9.84752 23.7253 10.8767 22.6636L20.5617 14.0836C22.5984 12.5886 21.645 9.75026 19.4784 9.75026H13.0217L21.0817 4.99443C21.5584 4.64776 21.7534 4.1386 21.7317 3.6511C21.6775 2.89276 21.0817 2.16693 20.15 2.16693C20.1284 2.16693 20.1067 2.16693 20.085 2.16693C19.7059 2.17776 19.3484 2.2861 19.0234 2.4811L5.40585 9.75026C4.53918 10.2486 4.26835 11.0936 4.32252 11.9169C4.38752 13.0328 5.13502 14.0836 6.50002 14.0836M5.40585 20.0419C5.40585 18.5469 6.63002 17.3336 8.12502 17.3336C9.62002 17.3336 10.8442 18.5469 10.8442 20.0419C10.8442 21.5369 9.62002 22.7503 8.12502 22.7503C6.63002 22.7503 5.40585 21.5369 5.40585 20.0419Z" fill="#4B4F52"/>
</g>
<defs>
<clipPath id="clip0_4_168">
<rect width="26" height="26" fill="white" transform="translate(0 0.000244141)"/>
</clipPath>
</defs>
</svg>
