<svg width="26" height="26" viewBox="0 0 26 26" fill="none" xmlns="http://www.w3.org/2000/svg">
<path d="M24.9286 7.70657L17.965 0.742912C17.3737 0.151659 16.3883 0.0859638 15.7314 0.677217L7.32243 7.90365L4.30047 8.36351C4.10339 8.36351 3.9063 8.4949 3.77491 8.62629L1.93546 10.4657C1.27851 11.1227 1.27851 12.1738 1.93546 12.7651L6.73118 17.5608L0.22739 24.0646C-0.16678 24.4588 -0.16678 25.05 0.22739 25.4442C0.424474 25.6413 0.687254 25.7726 0.884338 25.7726C1.08142 25.7726 1.4099 25.707 1.60698 25.5099L8.04508 19.0718L12.8408 23.8675C13.1693 24.196 13.5634 24.3274 14.0233 24.3274C14.4832 24.3274 14.8773 24.1303 15.2058 23.8675L17.0453 22.028C17.1767 21.8967 17.308 21.6996 17.308 21.5025L17.7679 18.4805L24.9286 10.0716C25.5199 9.28324 25.5199 8.29782 24.9286 7.70657ZM16.1255 17.298C15.9942 17.4294 15.9285 17.6265 15.9285 17.7579L15.4686 20.7141L14.0233 22.1594L3.51213 11.6483L4.89172 10.2687L7.84799 9.8088C8.04508 9.8088 8.17647 9.67741 8.30786 9.61172L16.7825 2.38528L23.2863 8.88907L16.1255 17.298Z" fill="#4B4F52"/>
</svg>
