<svg width="24" height="24" viewBox="0 0 24 24" fill="none" xmlns="http://www.w3.org/2000/svg">
<g clip-path="url(#clip0_6_177)">
<path d="M22.9318 6.09093L17.9091 1.0682C17.4955 0.654568 17.0227 0.477295 16.4318 0.477295H2.54548C1.42275 0.477295 0.477295 1.42275 0.477295 2.54548V21.4546C0.477295 22.5773 1.42275 23.5227 2.54548 23.5227H21.4546C22.5773 23.5227 23.5227 22.5773 23.5227 21.4546V7.50911C23.5227 6.97729 23.2864 6.44548 22.9318 6.09093ZM15.9 21.75H8.10002V15.7818H15.9V21.75ZM21.75 21.4546C21.75 21.6318 21.6318 21.75 21.4546 21.75H17.5546V14.9546C17.5546 14.4818 17.2 14.1273 16.7273 14.1273H7.27275C6.80002 14.1273 6.44548 14.4818 6.44548 14.9546V21.75H2.54548C2.3682 21.75 2.25002 21.6318 2.25002 21.4546V2.54548C2.25002 2.3682 2.3682 2.25002 2.54548 2.25002H6.44548V6.68184C6.44548 7.15457 6.80002 7.50911 7.27275 7.50911H14.9546C15.4273 7.50911 15.7818 7.15457 15.7818 6.68184C15.7818 6.20911 15.4273 5.85457 14.9546 5.85457H8.10002V2.25002H16.4909C16.55 2.25002 16.6682 2.30911 16.7273 2.30911L21.6909 7.27275C21.75 7.33184 21.75 7.39093 21.75 7.50911V21.4546Z" fill="#4B4F52"/>
</g>
<defs>
<clipPath id="clip0_6_177">
<rect width="24" height="24" fill="white"/>
</clipPath>
</defs>
</svg>
