<svg width="26" height="30" viewBox="0 0 26 30" fill="none" xmlns="http://www.w3.org/2000/svg">
<path d="M11.6542 0.370592C12.0634 0.127813 12.5275 0 13 0C13.4725 0 13.9366 0.127813 14.3458 0.370592L24.6542 6.48791C25.0634 6.73068 25.4032 7.07986 25.6394 7.50035C25.8756 7.92084 26 8.39783 26 8.88338V21.1166C26 21.6022 25.8756 22.0792 25.6394 22.4996C25.4032 22.9201 25.0634 23.2693 24.6542 23.5121L14.3458 29.6294C13.9366 29.8722 13.4725 30 13 30C12.5275 30 12.0634 29.8722 11.6542 29.6294L1.34576 23.5121C0.936604 23.2693 0.59684 22.9201 0.360611 22.4996C0.124383 22.0792 1.20002e-05 21.6022 0 21.1166V8.88338C1.20002e-05 8.39783 0.124383 7.92084 0.360611 7.50035C0.59684 7.07986 0.936604 6.73068 1.34576 6.48791L11.6542 0.370592ZM13 2.76607L2.69151 8.88338V21.1166L13 27.2339L23.3085 21.1166V8.88338L13 2.76607ZM13 9.46773C14.4277 9.46773 15.7969 10.0506 16.8064 11.0881C17.8159 12.1256 18.383 13.5328 18.383 15C18.383 16.4673 17.8159 17.8744 16.8064 18.9119C15.7969 19.9494 14.4277 20.5323 13 20.5323C11.5723 20.5323 10.2031 19.9494 9.19363 18.9119C8.18412 17.8744 7.61698 16.4673 7.61698 15C7.61698 13.5328 8.18412 12.1256 9.19363 11.0881C10.2031 10.0506 11.5723 9.46773 13 9.46773ZM13 12.2339C12.6465 12.2339 12.2966 12.3054 11.97 12.4444C11.6435 12.5834 11.3467 12.7872 11.0968 13.044C10.8469 13.3009 10.6486 13.6058 10.5134 13.9414C10.3781 14.277 10.3085 14.6367 10.3085 15C10.3085 15.3633 10.3781 15.723 10.5134 16.0586C10.6486 16.3942 10.8469 16.6991 11.0968 16.956C11.3467 17.2128 11.6435 17.4166 11.97 17.5556C12.2966 17.6946 12.6465 17.7661 13 17.7661C13.7138 17.7661 14.3984 17.4747 14.9032 16.956C15.4079 16.4372 15.6915 15.7336 15.6915 15C15.6915 14.2664 15.4079 13.5628 14.9032 13.044C14.3984 12.5253 13.7138 12.2339 13 12.2339Z" fill="#4B4F52"/>
</svg>
