<svg width="26" height="26" viewBox="0 0 26 26" fill="none" xmlns="http://www.w3.org/2000/svg">
<path d="M22.75 18.4167H24.9167V24.9167H18.4167V22.75H7.58337V24.9167H1.08337V18.4167H3.25004V7.58337H1.08337V1.08337H7.58337V3.25004H18.4167V1.08337H24.9167V7.58337H22.75V18.4167ZM22.75 20.5834H20.5834V22.75H22.75V20.5834ZM18.4167 20.5834V18.4167H20.5834V7.58337H18.4167V5.41671H7.58337V7.58337H5.41671V18.4167H7.58337V20.5834H18.4167ZM22.75 5.41671V3.25004H20.5834V5.41671H22.75ZM5.41671 22.75V20.5834H3.25004V22.75H5.41671ZM3.25004 5.41671H5.41671V3.25004H3.25004V5.41671ZM14.0834 10.8334V17.3334H11.9167V10.8334H8.66671V8.66671H17.3334V10.8334H14.0834Z" fill="#4B4F52"/>
</svg>
