<svg width="23" height="23" viewBox="0 0 23 23" fill="none" xmlns="http://www.w3.org/2000/svg">
<g clip-path="url(#clip0_6_182)">
<path d="M21.597 23C21.229 23 20.884 22.862 20.608 22.586L0.414 2.392C-0.138 1.84 -0.138 0.965999 0.414 0.414C0.965999 -0.138 1.84 -0.138 2.392 0.414L22.586 20.608C22.7171 20.7372 22.8212 20.8912 22.8922 21.0609C22.9633 21.2307 22.9999 21.4129 22.9999 21.597C22.9999 21.781 22.9633 21.9633 22.8922 22.133C22.8212 22.3028 22.7171 22.4568 22.586 22.586C22.4573 22.7177 22.3034 22.8222 22.1335 22.8934C21.9636 22.9645 21.7812 23.0007 21.597 23ZM1.403 23C1.035 23 0.69 22.862 0.414 22.586C0.282916 22.4568 0.178823 22.3028 0.107773 22.133C0.036724 21.9633 0.00013569 21.781 0.00013569 21.597C0.00013569 21.4129 0.036724 21.2307 0.107773 21.0609C0.178823 20.8912 0.282916 20.7372 0.414 20.608L20.608 0.414C21.16 -0.138 22.034 -0.138 22.586 0.414C23.138 0.965999 23.138 1.84 22.586 2.392L2.392 22.586C2.26328 22.7177 2.10941 22.8222 1.93951 22.8934C1.76962 22.9645 1.58717 23.0007 1.403 23Z" fill="#4B4F52"/>
</g>
<defs>
<clipPath id="clip0_6_182">
<rect width="23" height="23" fill="white"/>
</clipPath>
</defs>
</svg>
